<?xml version="1.0" encoding="utf-8"?>
<!-- Generator: Adobe Illustrator 22.0.0, SVG Export Plug-In . SVG Version: 6.00 Build 0)  -->
<svg version="1.1" id="图层_1" xmlns="http://www.w3.org/2000/svg" xmlns:xlink="http://www.w3.org/1999/xlink" x="0px" y="0px"
	 viewBox="0 0 48 48" style="enable-background:new 0 0 48 48;" xml:space="preserve">
<style type="text/css">
	.st0{fill:#999999;}
	.st1{fill:#B3B3B3;}
	.st2{fill:#FFFFFF;}
</style>
<path class="st0" d="M16.3,16.3c0-2.9,2.8-5.3,6.3-5.3s6.3,2.4,6.3,5.3H16.3z"/>
<g>
	<path class="st0" d="M12.5,17l-0.9,0.5c-1.3,0.2-2.1,0.3-2.1,0.5c0,0.6,5.8,1,13,1s13-0.4,13-1c0-0.2-0.8-0.4-2.1-0.5L32.5,17H12.5
		z"/>
</g>
<g>
	<path class="st1" d="M25.6,12.9c0.6,0.3,1.1,0.7,1.4,1.2c0.1,0.2,0.2,0.4,0.3,0.6c0.1,0.2,0.2,0.5,0.3,0.7"/>
	<g>
		<path class="st2" d="M25.4,13.2c1,0.4,1.5,1.2,1.9,2.2c0.2,0.4,0.9,0.2,0.7-0.2c-0.5-1.2-1-2.1-2.2-2.6
			C25.3,12.4,24.9,13,25.4,13.2L25.4,13.2z"/>
	</g>
</g>
<polygon class="st0" points="22.5,25.7 27,19.7 18,19.7 "/>
<circle class="st0" cx="22.5" cy="26.5" r="1.5"/>
<path class="st2" d="M23.9,21.8L23.9,21.8c-0.2-0.2-0.3-0.5-0.1-0.7l0.6-0.8c0.2-0.2,0.5-0.3,0.7-0.1l0,0c0.2,0.2,0.3,0.5,0.1,0.7
	l-0.6,0.8C24.4,21.9,24.1,22,23.9,21.8z"/>
<ellipse class="st2" cx="16" cy="18" rx="1" ry="0.5"/>
<ellipse class="st2" cx="22" cy="18" rx="1" ry="0.5"/>
<ellipse class="st2" cx="29" cy="18" rx="1" ry="0.5"/>
</svg>
