<?xml version="1.0" encoding="utf-8"?>
<!-- Generator: Adobe Illustrator 22.0.0, SVG Export Plug-In . SVG Version: 6.00 Build 0)  -->
<svg version="1.1" id="Layer_1" xmlns="http://www.w3.org/2000/svg" xmlns:xlink="http://www.w3.org/1999/xlink" x="0px" y="0px"
	 viewBox="0 0 48 48" style="enable-background:new 0 0 48 48;" xml:space="preserve">
<style type="text/css">
	.st0{fill:#999999;}
</style>
<g>
	<path class="st0" d="M15.6,4C22.5,4,28,9.6,28,16.4s-5.6,12.4-12.4,12.4S3.2,23.3,3.2,16.4S8.8,4,15.6,4 M15.6,2
		C7.7,2,1.2,8.5,1.2,16.4c0,8,6.5,14.4,14.4,14.4c8,0,14.4-6.5,14.4-14.4C30,8.5,23.6,2,15.6,2L15.6,2z"/>
</g>
<g>
	<path class="st0" d="M24.8,26c-0.1,0-0.2,0-0.3,0.1l-1,1c-0.2,0.2-0.2,0.4,0,0.6l11.6,11.6c0.1,0.1,0.2,0.1,0.3,0.1s0.2,0,0.3-0.1
		l1-1c0.2-0.2,0.2-0.4,0-0.6L25.1,26.1C25,26,24.9,26,24.8,26L24.8,26z"/>
</g>
</svg>
